# xmcd CD database file
#
# Track frame offsets:
#	151
#	20118
#	71812
#	88252
#	105463
#	128546
#	145035
#	159809
#	172013
#	180286
#
# Disc length: 2611 seconds
#
# Revision: 2
# Processed by: cddbd v1.5.2PL0 Copyright (c) Steve Scherf et al.
# Submitted via: CDex 1.70beta2
#
DISCID=7c0a310a
DTITLE=Queen - First Major Rock
DYEAR=1998
DGENRE=Country
TTITLE0=Love Of My Life
TTITLE1=Keep Yourself Alive - Instrumental Inferno - Guitar Solo
TTITLE2=Flash - The Hero
TTITLE3=Crazy Little Thing Called Love
TTITLE4=Bohemian Rhapsody
TTITLE5=Tie Your Mother Down
TTITLE6=Another One Bites The Dust
TTITLE7=Sheer Heart Attack
TTITLE8=We Will Rock You
TTITLE9=We Are The Champions
EXTD=YEAR: 1998
EXTT0=
EXTT1=
EXTT2=
EXTT3=
EXTT4=
EXTT5=
EXTT6=
EXTT7=
EXTT8=
EXTT9=
PLAYORDER=
